<svg xmlns="http://www.w3.org/2000/svg" xmlns:xlink="http://www.w3.org/1999/xlink"><defs><style>
    .sprite-symbol-usage {display: none;}
    .sprite-symbol-usage:target {display: inline;}
  </style><symbol viewBox="0 0 46 24" id="arrow">
    <path fill-rule="evenodd" clip-rule="evenodd" d="M36.7207 23.5227L45.5917 13.1523C46.1361 12.5159 46.1361 11.4841 45.5917 10.8477L36.7207 0.477287C36.1764 -0.159096 35.2938 -0.159096 34.7494 0.477287C34.2051 1.11367 34.2051 2.14545 34.7494 2.78183L41.2408 10.3704L0 10.3704L0 13.6296L41.2408 13.6296L34.7494 21.2182C34.2051 21.8546 34.2051 22.8863 34.7494 23.5227C35.2938 24.1591 36.1764 24.1591 36.7207 23.5227Z" />
</symbol><symbol viewBox="0 0 12 13" id="cross">
    <path d="M0.616922 12.3131C0.459 12.3131 0.300927 12.2516 0.180827 12.1274C-0.0602758 11.8801 -0.0602758 11.4789 0.180827 11.2315L10.9459 0.18734C11.1872 -0.0601681 11.5781 -0.0601681 11.8192 0.18734C12.0603 0.434694 12.0603 0.835716 11.8192 1.08307L1.05392 12.1274C0.932918 12.2516 0.774996 12.3131 0.616922 12.3131Z" />
    <path d="M11.3829 12.3122C11.225 12.3122 11.0669 12.2507 10.9468 12.1265L0.180827 1.0814C-0.0602758 0.833892 -0.0602758 0.432869 0.180827 0.185515C0.42193 -0.0618385 0.812819 -0.0618385 1.05392 0.185515L11.8192 11.2306C12.0603 11.478 12.0603 11.8792 11.8192 12.1265C11.6982 12.2507 11.5402 12.3122 11.3829 12.3122Z" />
</symbol><symbol viewBox="0 0 32 32" id="facebook">
    <path d="M29.4737 0H2.52632C1.8563 0 1.21372 0.266165 0.739941 0.739941C0.266165 1.21372 0 1.8563 0 2.52632L0 29.4737C0 30.1437 0.266165 30.7863 0.739941 31.2601C1.21372 31.7338 1.8563 32 2.52632 32H29.4737C30.1437 32 30.7863 31.7338 31.2601 31.2601C31.7338 30.7863 32 30.1437 32 29.4737V2.52632C32 1.8563 31.7338 1.21372 31.2601 0.739941C30.7863 0.266165 30.1437 0 29.4737 0V0ZM20.5516 10.4126C20.5516 10.7137 20.4253 10.8337 20.1305 10.8337C19.5642 10.8337 18.9979 10.8337 18.4337 10.8568C17.8695 10.88 17.5621 11.1368 17.5621 11.7263C17.5495 12.3579 17.5621 12.9768 17.5621 13.6211H19.9853C20.3305 13.6211 20.4484 13.7389 20.4484 14.0863C20.4484 14.9284 20.4484 15.7747 20.4484 16.6253C20.4484 16.9684 20.3389 17.0758 19.9916 17.0779H17.5411V23.9284C17.5411 24.2947 17.4274 24.4105 17.0653 24.4105H14.4295C14.1116 24.4105 13.9874 24.2863 13.9874 23.9684V17.0884H11.8947C11.5663 17.0884 11.4484 16.9684 11.4484 16.6379C11.4484 15.786 11.4484 14.9347 11.4484 14.0842C11.4484 13.7558 11.5726 13.6316 11.8968 13.6316H13.9874V11.7895C13.9626 10.962 14.1611 10.1432 14.5621 9.41895C14.979 8.68781 15.647 8.13276 16.4421 7.85684C16.9581 7.66909 17.5035 7.57498 18.0526 7.57895H20.1221C20.4189 7.57895 20.5432 7.70947 20.5432 8C20.5537 8.81053 20.5537 9.61263 20.5516 10.4126Z" />
</symbol><symbol viewBox="0 0 33 32" id="instagram">
    <path d="M23.54 10.5817C23.3928 10.1827 23.158 9.82166 22.8528 9.52527C22.5564 9.22009 22.1956 8.98523 21.7964 8.83801C21.4727 8.71228 20.9863 8.56262 20.0906 8.52185C19.1216 8.47766 18.8311 8.46814 16.3779 8.46814C13.9246 8.46814 13.634 8.47742 12.6653 8.52161C11.7695 8.56262 11.283 8.71228 10.9595 8.83801C10.5603 8.98523 10.1992 9.22009 9.90308 9.52527C9.5979 9.82166 9.36304 10.1825 9.21558 10.5817C9.08984 10.9054 8.94019 11.392 8.89941 12.2877C8.85522 13.2565 8.8457 13.547 8.8457 16.0004C8.8457 18.4535 8.85522 18.744 8.89941 19.713C8.94019 20.6088 9.08984 21.0951 9.21558 21.4188C9.36304 21.818 9.59766 22.1788 9.90283 22.4752C10.1992 22.7804 10.5601 23.0153 10.9592 23.1625C11.283 23.2885 11.7695 23.4381 12.6653 23.4789C13.634 23.5231 13.9243 23.5324 16.3777 23.5324C18.8313 23.5324 19.1218 23.5231 20.0903 23.4789C20.9861 23.4381 21.4727 23.2885 21.7964 23.1625C22.5977 22.8534 23.231 22.2201 23.54 21.4188C23.6658 21.0951 23.8154 20.6088 23.8564 19.713C23.9006 18.744 23.9099 18.4535 23.9099 16.0004C23.9099 13.547 23.9006 13.2565 23.8564 12.2877C23.8157 11.392 23.666 10.9054 23.54 10.5817ZM16.3779 20.7179C13.7722 20.7179 11.6599 18.6058 11.6599 16.0001C11.6599 13.3944 13.7722 11.2823 16.3779 11.2823C18.9834 11.2823 21.0957 13.3944 21.0957 16.0001C21.0957 18.6058 18.9834 20.7179 16.3779 20.7179ZM21.2822 12.1984C20.6733 12.1984 20.1797 11.7047 20.1797 11.0958C20.1797 10.4869 20.6733 9.99329 21.2822 9.99329C21.8911 9.99329 22.3848 10.4869 22.3848 11.0958C22.3845 11.7047 21.8911 12.1984 21.2822 12.1984Z" />
    <path d="M19.4405 16C19.4405 17.6914 18.0694 19.0625 16.378 19.0625C14.6866 19.0625 13.3155 17.6914 13.3155 16C13.3155 14.3086 14.6866 12.9375 16.378 12.9375C18.0694 12.9375 19.4405 14.3086 19.4405 16Z" />
    <path d="M30.0704 0H2.68616C1.4115 0 0.378296 1.0332 0.378296 2.30786V29.6921C0.378296 30.9668 1.4115 32 2.68616 32H30.0704C31.3451 32 32.3783 30.9668 32.3783 29.6921V2.30786C32.3783 1.0332 31.3451 0 30.0704 0V0ZM25.5104 19.7878C25.4659 20.7659 25.3104 21.4336 25.0834 22.0181C24.6061 23.2522 23.6305 24.2278 22.3964 24.7051C21.8121 24.9321 21.1442 25.0874 20.1664 25.1321C19.1866 25.1768 18.8737 25.1875 16.3785 25.1875C13.8832 25.1875 13.5704 25.1768 12.5905 25.1321C11.6127 25.0874 10.9447 24.9321 10.3605 24.7051C9.74719 24.4744 9.19202 24.1128 8.73303 23.6453C8.26575 23.1865 7.90417 22.6311 7.67346 22.0181C7.44641 21.4338 7.29089 20.7659 7.24646 19.7881C7.20129 18.8081 7.1908 18.4951 7.1908 16C7.1908 13.5049 7.20129 13.1919 7.24622 12.2122C7.29065 11.2341 7.44592 10.5664 7.67297 9.98193C7.90369 9.3689 8.2655 8.81348 8.73303 8.35474C9.19177 7.88721 9.74719 7.52563 10.3602 7.29492C10.9447 7.06787 11.6124 6.9126 12.5905 6.86792C13.5702 6.82324 13.8832 6.8125 16.3783 6.8125C18.8734 6.8125 19.1864 6.82324 20.1661 6.86816C21.1442 6.9126 21.8119 7.06787 22.3964 7.29468C23.0094 7.52539 23.5648 7.88721 24.0238 8.35474C24.4911 8.81372 24.8529 9.3689 25.0834 9.98193C25.3107 10.5664 25.4659 11.2341 25.5106 12.2122C25.5553 13.1919 25.5658 13.5049 25.5658 16C25.5658 18.4951 25.5553 18.8081 25.5104 19.7878Z" />
</symbol><symbol viewBox="0 0 33 32" id="youtube">
    <path d="M14.4028 13.4189L18.8407 16.0063L14.4028 18.5811V13.4189Z" />
    <path d="M30.0953 0H3.1479C2.47788 0 1.8353 0.266165 1.36152 0.739941C0.887747 1.21372 0.621582 1.8563 0.621582 2.52632L0.621582 29.4737C0.621582 30.1437 0.887747 30.7863 1.36152 31.2601C1.8353 31.7338 2.47788 32 3.1479 32H30.0953C30.7653 32 31.4079 31.7338 31.8816 31.2601C32.3554 30.7863 32.6216 30.1437 32.6216 29.4737V2.52632C32.6216 1.8563 32.3554 1.21372 31.8816 0.739941C31.4079 0.266165 30.7653 0 30.0953 0V0ZM25.0426 18.8316C25.0429 19.25 24.9607 19.6645 24.8008 20.0512C24.6408 20.4379 24.4062 20.7893 24.1104 21.0853C23.8146 21.3813 23.4634 21.6161 23.0768 21.7763C22.6902 21.9365 22.2758 22.0189 21.8574 22.0189H11.3858C10.9673 22.0189 10.5529 21.9365 10.1664 21.7763C9.77977 21.6161 9.42853 21.3813 9.13273 21.0853C8.83692 20.7893 8.60234 20.4379 8.44239 20.0512C8.28244 19.6645 8.20025 19.25 8.20053 18.8316V13.1684C8.20025 12.7499 8.28244 12.3355 8.44239 11.9488C8.60234 11.5621 8.83692 11.2107 9.13273 10.9147C9.42853 10.6187 9.77977 10.3839 10.1664 10.2237C10.5529 10.0635 10.9673 9.98105 11.3858 9.98105H21.8574C22.2758 9.98105 22.6902 10.0635 23.0768 10.2237C23.4634 10.3839 23.8146 10.6187 24.1104 10.9147C24.4062 11.2107 24.6408 11.5621 24.8008 11.9488C24.9607 12.3355 25.0429 12.7499 25.0426 13.1684V18.8316Z" />
</symbol></defs><use id="arrow-usage" xlink:href="#arrow" class="sprite-symbol-usage" /><use id="cross-usage" xlink:href="#cross" class="sprite-symbol-usage" /><use id="facebook-usage" xlink:href="#facebook" class="sprite-symbol-usage" /><use id="instagram-usage" xlink:href="#instagram" class="sprite-symbol-usage" /><use id="youtube-usage" xlink:href="#youtube" class="sprite-symbol-usage" /></svg>